<svg width="26" height="20" viewBox="0 0 26 20" fill="none" xmlns="http://www.w3.org/2000/svg">
<path d="M21.8311 2.30855C20.2451 1.58083 18.5444 1.04469 16.7662 0.737616C16.7338 0.73169 16.7015 0.7465 16.6848 0.776122C16.4661 1.16514 16.2238 1.67266 16.0541 2.07156C14.1416 1.78523 12.2388 1.78523 10.3654 2.07156C10.1957 1.66379 9.94467 1.16514 9.72497 0.776122C9.70828 0.747489 9.67593 0.732678 9.64355 0.737616C7.86633 1.04371 6.16562 1.57985 4.57866 2.30855C4.56493 2.31447 4.55315 2.32435 4.54534 2.33718C1.31944 7.1566 0.435731 11.8576 0.869248 16.5002C0.87121 16.523 0.88396 16.5447 0.901615 16.5585C3.02997 18.1215 5.09164 19.0704 7.11503 19.6993C7.14742 19.7092 7.18173 19.6974 7.20233 19.6707C7.68097 19.0171 8.10763 18.3279 8.47345 17.6031C8.49503 17.5607 8.47443 17.5103 8.4303 17.4935C7.75355 17.2368 7.10915 16.9238 6.48927 16.5684C6.44024 16.5397 6.43632 16.4696 6.48142 16.436C6.61187 16.3383 6.74235 16.2366 6.8669 16.1339C6.88944 16.1151 6.92084 16.1112 6.94733 16.123C11.0196 17.9823 15.4284 17.9823 19.4526 16.123C19.4791 16.1102 19.5105 16.1142 19.534 16.1329C19.6586 16.2356 19.7891 16.3383 19.9205 16.436C19.9656 16.4696 19.9626 16.5397 19.9136 16.5684C19.2937 16.9307 18.6493 17.2368 17.9716 17.4926C17.9275 17.5093 17.9079 17.5607 17.9294 17.6031C18.3031 18.3269 18.7298 19.0161 19.1996 19.6697C19.2192 19.6974 19.2545 19.7092 19.2869 19.6993C21.3201 19.0704 23.3817 18.1215 25.5101 16.5585C25.5287 16.5447 25.5405 16.5239 25.5425 16.5012C26.0613 11.1338 24.6735 6.47136 21.8634 2.33816C21.8566 2.32435 21.8448 2.31447 21.8311 2.30855ZM9.08158 13.6733C7.85554 13.6733 6.84531 12.5477 6.84531 11.1654C6.84531 9.78304 7.83595 8.65744 9.08158 8.65744C10.337 8.65744 11.3374 9.79292 11.3178 11.1654C11.3178 12.5477 10.3272 13.6733 9.08158 13.6733ZM17.3498 13.6733C16.1238 13.6733 15.1135 12.5477 15.1135 11.1654C15.1135 9.78304 16.1041 8.65744 17.3498 8.65744C18.6052 8.65744 19.6056 9.79292 19.586 11.1654C19.586 12.5477 18.6052 13.6733 17.3498 13.6733Z" fill="#5865F2"/>
</svg>
