<svg width="19" height="20" viewBox="0 0 19 20" fill="none" xmlns="http://www.w3.org/2000/svg">
<path d="M0.0927734 7.89258C0.0927734 6.82617 0.292725 5.82642 0.692627 4.89331C1.09888 3.95386 1.65747 3.12866 2.36841 2.41772C3.07935 1.70044 3.90137 1.14185 4.83447 0.741943C5.77393 0.342041 6.77686 0.14209 7.84326 0.14209C8.91602 0.14209 9.91895 0.342041 10.8521 0.741943C11.7915 1.14185 12.6167 1.70044 13.3276 2.41772C14.0386 3.12866 14.594 3.95386 14.9939 4.89331C15.4001 5.82642 15.6033 6.82617 15.6033 7.89258C15.6033 8.73047 15.4731 9.5271 15.2129 10.2825C14.959 11.0378 14.6067 11.7266 14.156 12.3486L18.4978 16.7095C18.6311 16.8364 18.7295 16.9856 18.793 17.157C18.8628 17.3284 18.8977 17.5093 18.8977 17.6997C18.8977 17.9663 18.8374 18.2075 18.7168 18.4233C18.5962 18.6392 18.4312 18.8074 18.2217 18.928C18.0122 19.0549 17.771 19.1184 17.498 19.1184C17.3076 19.1184 17.1235 19.0835 16.9458 19.0137C16.7744 18.9502 16.6189 18.8486 16.4792 18.709L12.1089 14.3386C11.4995 14.7449 10.833 15.0654 10.1094 15.3003C9.39209 15.5288 8.63672 15.6431 7.84326 15.6431C6.77686 15.6431 5.77393 15.4431 4.83447 15.0432C3.90137 14.6433 3.07935 14.0879 2.36841 13.377C1.65747 12.666 1.09888 11.844 0.692627 10.9109C0.292725 9.97144 0.0927734 8.96533 0.0927734 7.89258ZM2.12085 7.89258C2.12085 8.68604 2.26685 9.42871 2.55884 10.1206C2.85718 10.8125 3.26978 11.4219 3.79663 11.9487C4.32349 12.4692 4.93286 12.8787 5.62476 13.177C6.31665 13.4753 7.05615 13.6245 7.84326 13.6245C8.63672 13.6245 9.37939 13.4753 10.0713 13.177C10.7632 12.8787 11.3694 12.4692 11.8899 11.9487C12.4167 11.4219 12.8293 10.8125 13.1277 10.1206C13.426 9.42871 13.5752 8.68604 13.5752 7.89258C13.5752 7.10547 13.426 6.36597 13.1277 5.67407C12.8293 4.98218 12.4167 4.3728 11.8899 3.84595C11.3694 3.31909 10.7632 2.90967 10.0713 2.61768C9.37939 2.31934 8.63672 2.17017 7.84326 2.17017C7.05615 2.17017 6.31665 2.31934 5.62476 2.61768C4.93286 2.90967 4.32349 3.31909 3.79663 3.84595C3.26978 4.3728 2.85718 4.98218 2.55884 5.67407C2.26685 6.36597 2.12085 7.10547 2.12085 7.89258Z" fill="#4D4D4D"/>
</svg>
