<svg width="23" height="24" viewBox="0 0 23 24" fill="none" xmlns="http://www.w3.org/2000/svg">
<g filter="url(#filter0_dd_147_93)">
<g clip-path="url(#clip0_147_93)">
<rect x="3.16724" y="2.29395" width="16.4696" height="17.5676" rx="4.39189" fill="#007AFF"/>
<rect x="3.16724" y="2.29395" width="16.4696" height="17.5676" rx="4.39189" fill="url(#paint0_linear_147_93)" fill-opacity="0.17"/>
<path d="M11.402 13.3739C11.1769 13.3739 10.9692 13.2801 10.7791 13.0925L8.07326 10.3266C8.00321 10.2541 7.95067 10.1765 7.91564 10.0939C7.88312 10.0114 7.86686 9.92005 7.86686 9.81998C7.86686 9.68488 7.89938 9.56103 7.96443 9.44845C8.03198 9.33336 8.1208 9.24329 8.23088 9.17824C8.34347 9.11069 8.46606 9.07692 8.59866 9.07692C8.80381 9.07692 8.98645 9.15823 9.14657 9.32085L11.5334 11.7902H11.2782L13.6575 9.32085C13.8126 9.15823 13.9927 9.07692 14.1979 9.07692C14.333 9.07692 14.4556 9.11069 14.5657 9.17824C14.6783 9.24329 14.7671 9.33336 14.8321 9.44845C14.8997 9.56103 14.9334 9.68488 14.9334 9.81998C14.9334 10.0201 14.8634 10.189 14.7233 10.3266L12.0212 13.0925C11.9237 13.19 11.8248 13.2613 11.7248 13.3064C11.6272 13.3514 11.5196 13.3739 11.402 13.3739Z" fill="white"/>
</g>
</g>
<defs>
<filter id="filter0_dd_147_93" x="0.422306" y="0.646987" width="21.9593" height="23.0575" filterUnits="userSpaceOnUse" color-interpolation-filters="sRGB">
<feFlood flood-opacity="0" result="BackgroundImageFix"/>
<feColorMatrix in="SourceAlpha" type="matrix" values="0 0 0 0 0 0 0 0 0 0 0 0 0 0 0 0 0 0 127 0" result="hardAlpha"/>
<feMorphology radius="0.548986" operator="dilate" in="SourceAlpha" result="effect1_dropShadow_147_93"/>
<feOffset/>
<feComposite in2="hardAlpha" operator="out"/>
<feColorMatrix type="matrix" values="0 0 0 0 0 0 0 0 0 0.478431 0 0 0 0 1 0 0 0 0.12 0"/>
<feBlend mode="normal" in2="BackgroundImageFix" result="effect1_dropShadow_147_93"/>
<feColorMatrix in="SourceAlpha" type="matrix" values="0 0 0 0 0 0 0 0 0 0 0 0 0 0 0 0 0 0 127 0" result="hardAlpha"/>
<feOffset dy="1.09797"/>
<feGaussianBlur stdDeviation="1.37247"/>
<feComposite in2="hardAlpha" operator="out"/>
<feColorMatrix type="matrix" values="0 0 0 0 0 0 0 0 0 0.478431 0 0 0 0 1 0 0 0 0.24 0"/>
<feBlend mode="normal" in2="effect1_dropShadow_147_93" result="effect2_dropShadow_147_93"/>
<feBlend mode="normal" in="SourceGraphic" in2="effect2_dropShadow_147_93" result="shape"/>
</filter>
<linearGradient id="paint0_linear_147_93" x1="11.402" y1="2.29395" x2="11.402" y2="19.8615" gradientUnits="userSpaceOnUse">
<stop stop-color="white"/>
<stop offset="1" stop-color="white" stop-opacity="0"/>
</linearGradient>
<clipPath id="clip0_147_93">
<rect x="3.16724" y="2.29395" width="16.4696" height="17.5676" rx="4.39189" fill="white"/>
</clipPath>
</defs>
</svg>
