<svg width="25" height="25" viewBox="0 0 25 25" fill="none" xmlns="http://www.w3.org/2000/svg">
<g clip-path="url(#clip0_1_1184)">
<path d="M24.3876 6.41293C24.2469 5.88356 23.9696 5.40042 23.5836 5.01186C23.1975 4.6233 22.7161 4.34296 22.1877 4.19889C20.2423 3.67578 12.4663 3.67578 12.4663 3.67578C12.4663 3.67578 4.69026 3.67578 2.74484 4.19889C2.21638 4.34296 1.73502 4.6233 1.34895 5.01186C0.962875 5.40042 0.685624 5.88356 0.544943 6.41293C0.0246583 8.36683 0.0246582 12.4415 0.0246582 12.4415C0.0246582 12.4415 0.0246583 16.5161 0.544943 18.47C0.685624 18.9993 0.962875 19.4825 1.34895 19.871C1.73502 20.2596 2.21638 20.5399 2.74484 20.684C4.69026 21.2071 12.4663 21.2071 12.4663 21.2071C12.4663 21.2071 20.2423 21.2071 22.1877 20.684C22.7161 20.5399 23.1975 20.2596 23.5836 19.871C23.9696 19.4825 24.2469 18.9993 24.3876 18.47C24.9079 16.5161 24.9079 12.4415 24.9079 12.4415C24.9079 12.4415 24.9079 8.36683 24.3876 6.41293Z" fill="#FF0302"/>
<path d="M9.92139 16.1416V8.7417L16.4249 12.4417L9.92139 16.1416Z" fill="#FEFEFE"/>
</g>
<defs>
<clipPath id="clip0_1_1184">
<rect width="24.8832" height="24.8832" fill="white"/>
</clipPath>
</defs>
</svg>
